<?xml version="1.0" encoding="UTF-8"?>
<svg version="1.1" xmlns="http://www.w3.org/2000/svg" width="200" height="200">
<path d="M0 0 C15.71108499 -0.93849401 28.56026931 4.74697363 40.6875 14.5 C44.10853798 17.0351898 46.19655609 18.55608765 50.5 18.125 C52.33562165 17.76136655 54.16857237 17.3841991 56 17 C59.01426955 16.58315623 62.03646722 16.25641052 65.0625 15.9375 C65.88484131 15.84968262 66.70718262 15.76186523 67.55444336 15.67138672 C80.48757119 14.36460324 92.99608114 14.85430489 105.87890625 16.46484375 C106.56098145 16.54790771 107.24305664 16.63097168 107.94580078 16.71655273 C109.34579499 16.90972997 110.74072031 17.14282529 112.12841797 17.41040039 C115.53430356 18.01577603 117.51288122 18.25443257 120.625 16.62890625 C121.40875 15.94699219 122.1925 15.26507813 123 14.5625 C135.30754207 4.80903003 148.25636124 -0.59161899 164 0 C164.65043719 1.72744016 165.29514844 3.4570369 165.9375 5.1875 C166.47697266 6.63189453 166.47697266 6.63189453 167.02734375 8.10546875 C169.12569854 14.34997036 169.18314912 20.22367634 169.1875 26.75 C169.19974609 27.70132813 169.21199219 28.65265625 169.22460938 29.6328125 C169.23416243 34.28196447 169.01099673 38.3984156 167.796875 42.8984375 C166.93791031 46.31788626 166.93791031 46.31788626 168.16015625 49.6796875 C169.10181641 50.76636719 169.10181641 50.76636719 170.0625 51.875 C180.40446486 65.06151315 182.52049611 80.0530212 182.375 96.4375 C182.38660156 97.74009766 182.39820313 99.04269531 182.41015625 100.38476562 C182.35922167 117.43935998 178.8200761 134.16883796 167 147 C166.37738281 147.67675781 165.75476563 148.35351562 165.11328125 149.05078125 C151.92568501 161.98718518 132.79672972 166.78636736 115 169 C114.30583984 169.08757568 113.61167969 169.17515137 112.89648438 169.26538086 C104.18028339 170.21733539 95.45382177 170.18609753 86.69677734 170.18530273 C84.03336188 170.18747282 81.37037295 170.2056383 78.70703125 170.22460938 C50.40135581 170.31874443 18.834484 167.45483848 -2.8984375 147.2578125 C-16.02624216 133.15396288 -18.43262159 115.24653171 -18.375 96.75 C-18.37412384 96.06302032 -18.37324768 95.37604065 -18.37234497 94.66824341 C-18.30289853 78.18156287 -15.30999304 62.29054138 -4.65625 49.09765625 C-2.59053797 46.01929585 -2.59053797 46.01929585 -3.7265625 42.29296875 C-3.94473633 41.61411621 -4.16291016 40.93526367 -4.38769531 40.23583984 C-5.54564951 36.00755254 -5.38141467 31.67032739 -5.375 27.3125 C-5.37556396 26.34658936 -5.37612793 25.38067871 -5.37670898 24.38549805 C-5.25774419 16.61898235 -3.96973922 10.21563145 -1 3 C-0.67 2.01 -0.34 1.02 0 0 Z M16 93 C8.95978717 103.32108871 8.29396195 114.30866009 10.24609375 126.32421875 C12.15479745 135.63038547 17.6564145 143.19092746 25.4375 148.6875 C34.21838372 153.67625544 44.41232923 156.08459132 54.37890625 157.12890625 C55.15096909 157.21158752 55.92303192 157.2942688 56.7184906 157.37945557 C64.55518593 158.15444972 72.36217066 158.303662 80.23217773 158.26074219 C82.56585541 158.24998453 84.89876655 158.2607453 87.23242188 158.2734375 C106.44070949 158.29294085 129.08464824 157.70451139 144 144 C152.28306306 135.40199157 155.2137189 125.85427517 155 114 C153.68082556 102.31954279 149.92511838 94.02664227 141.1015625 86.2890625 C135.07260529 82.59100324 129.36388043 81.53287875 122.375 81.6875 C121.31732422 81.68266602 121.31732422 81.68266602 120.23828125 81.67773438 C115.56130265 81.72310189 111.0944084 82.26639783 106.4765625 83.00390625 C99.0117475 84.12408079 91.71655977 84.30458029 84.18652344 84.26074219 C82.00167107 84.25000821 79.81764045 84.26071795 77.6328125 84.2734375 C69.63953926 84.28046779 62.02205939 83.7223736 54.10839844 82.45849609 C49.92886767 81.84200546 45.84352693 81.66821971 41.625 81.6875 C40.53251953 81.66333008 40.53251953 81.66333008 39.41796875 81.63867188 C29.49629487 81.62982903 22.54851014 85.65167183 16 93 Z " fill="#1096DB" transform="translate(18,15)"/>
<path d="M0 0 C5.76719253 3.27681394 7.98048414 8.94145242 10 15 C10.72260813 24.77297877 10.7427744 33.89337078 4.4921875 41.94140625 C1.36133526 45.07953954 -1.17119265 46.37723347 -5.625 46.5625 C-9.47586406 46.2617534 -12.04321101 45.61887025 -15 43 C-16.57561465 40.76879744 -17.84441438 38.47265045 -19 36 C-19.35964844 35.25878906 -19.71929687 34.51757812 -20.08984375 33.75390625 C-22.80588143 25.53585233 -21.95034174 14.75646083 -18.27734375 6.9921875 C-13.82676236 0.05091377 -7.94429527 -1.96270824 0 0 Z " fill="#1096DB" transform="translate(144,108)"/>
<path d="M0 0 C5.36431249 5.18843339 6.90733931 11.74450997 7.22241211 19.02294922 C7.33837972 27.85906576 6.02012802 34.32521083 0.125 41.0625 C-3.56840151 44.17273285 -6.13237793 44.54076582 -10.8671875 44.45703125 C-15.1959601 43.74030005 -17.61424863 41.45620059 -20.25 38.0625 C-25.06602228 30.41100899 -25.21244377 21.84961162 -24.25 13.0625 C-22.58328063 6.9993831 -19.4844212 1.03909073 -14 -2.3125 C-8.5347086 -3.55461168 -4.69671359 -2.79996387 0 0 Z " fill="#1096DB" transform="translate(70.25,109.9375)"/>
</svg>
